<?xml version="1.0" standalone="no"?>
<!DOCTYPE svg PUBLIC "-//W3C//DTD SVG 20010904//EN"
 "http://www.w3.org/TR/2001/REC-SVG-20010904/DTD/svg10.dtd">
<svg version="1.0" xmlns="http://www.w3.org/2000/svg"
 width="3355.000000pt" height="2136.000000pt" viewBox="0 0 3355.000000 2136.000000"
 preserveAspectRatio="xMidYMid meet">

<g transform="translate(0.000000,2136.000000) scale(0.100000,-0.100000)"
fill="#000000" stroke="none">
<path d="M3330 21353 c-19 -1 -84 -8 -145 -13 -812 -79 -1606 -468 -2191
-1072 -575 -596 -921 -1367 -984 -2198 -8 -104 -10 -2208 -8 -7485 3 -6903 5
-7347 21 -7455 70 -464 168 -787 353 -1160 417 -841 1163 -1491 2047 -1785
255 -84 480 -134 752 -167 163 -19 27027 -19 27190 0 859 103 1605 469 2191
1074 575 596 921 1367 984 2198 8 104 10 2208 8 7485 -3 6903 -5 7347 -21
7455 -70 464 -168 787 -353 1160 -417 841 -1163 1491 -2047 1785 -243 81 -433
123 -737 167 -66 9 -3048 12 -13555 13 -7408 1 -13486 0 -13505 -2z m20330
-4168 c0 -8 12 -17 28 -21 61 -13 101 -28 172 -65 189 -97 319 -262 372 -471
17 -67 19 -102 16 -192 l-5 -111 -867 -3030 c-477 -1666 -879 -3057 -893
-3090 -38 -91 -62 -134 -112 -204 -105 -148 -203 -224 -356 -278 l-80 -28
-3925 -5 c-3567 -5 -3925 -6 -3922 -21 2 -13 400 -1406 418 -1461 5 -17 199
-18 3702 -20 l3697 -3 75 -23 c306 -95 514 -354 532 -662 l3 -45 130 -12 c223
-21 387 -70 593 -178 136 -71 244 -149 365 -265 248 -236 406 -519 479 -854
19 -88 22 -131 22 -331 1 -217 -1 -237 -28 -350 -171 -730 -762 -1244 -1488
-1294 -832 -57 -1562 493 -1740 1313 -19 87 -22 132 -23 321 0 194 3 233 23
329 40 183 108 361 196 509 25 43 46 83 46 88 0 5 -1279 9 -3235 9 -1779 0
-3235 -2 -3235 -5 0 -2 19 -35 42 -72 379 -617 292 -1432 -212 -1975 -340
-367 -812 -551 -1319 -516 -401 27 -755 190 -1047 482 -268 269 -420 574 -470
945 -92 691 273 1374 901 1688 189 95 330 135 539 154 86 8 140 17 143 25 2 6
-167 609 -377 1340 -210 731 -389 1358 -399 1394 -10 36 -370 1297 -801 2802
l-783 2737 -1446 3 c-1361 3 -1450 5 -1511 22 -159 44 -313 146 -404 267 -72
95 -90 140 -121 294 l-29 140 28 140 c16 79 39 161 53 190 110 218 314 363
555 394 35 5 3581 9 7881 10 6898 1 7817 -1 7817 -14z"/>
<path d="M17168 15731 c-31 -10 -72 -28 -92 -40 -55 -34 -123 -116 -148 -179
l-23 -57 -3 -667 -3 -667 -667 -3 -667 -3 -57 -23 c-67 -27 -148 -97 -184
-158 -49 -83 -54 -124 -54 -459 0 -326 4 -366 48 -451 30 -58 121 -138 190
-166 l57 -23 667 -3 667 -3 3 -667 3 -667 23 -57 c27 -67 97 -148 158 -184 83
-49 124 -54 459 -54 325 0 366 5 450 47 61 31 138 119 166 188 l24 60 3 667 3
667 667 3 667 3 60 24 c81 33 164 112 201 194 l29 62 0 360 0 360 -29 63 c-37
80 -122 161 -203 194 l-58 23 -667 3 -667 3 -3 667 -3 667 -24 60 c-33 82
-124 173 -206 206 -59 23 -67 24 -395 26 -302 2 -341 1 -392 -16z"/>
</g>
</svg>
